# xmcd
#
# Track frame offsets:
#	150
#	18985
#	38312
#	56830
#	71326
#	87011
#	105701
#	123080
#	140742
#	157159
#	174582
#	192588
#	207746
#
# Disc length: 3019 seconds
#
# Revision: 2
# Processed by: cddbd v1.5.1PL0 Copyright (c) Steve Scherf et al.
# Submitted via: EasyCDDAExtractor 8.0.1.1
#
DISCID=b60bc90d
DTITLE=Bellamy Brothers - Beggars And Heroes
DYEAR=1992
DGENRE=Country
TTITLE0=Beggars And Heroes
TTITLE1=Take Me Home
TTITLE2=My Indiana Lady
TTITLE3=Miami Moon
TTITLE4=I Wish I Had You
TTITLE5=Changin' Hearts
TTITLE6=Suzanne, Suzanne
TTITLE7=Blame It...On The Fire In My Heart
TTITLE8=Blue History
TTITLE9=I Love You (More And More)
TTITLE10=Live Is A Beach
TTITLE11=Rockin' Sally
TTITLE12=Lay Ya Down
EXTD=
EXTT0=
EXTT1=
EXTT2=
EXTT3=
EXTT4=
EXTT5=
EXTT6=
EXTT7=
EXTT8=
EXTT9=
EXTT10=
EXTT11=
EXTT12=
PLAYORDER=
